HIERARCHY
ROOT Hips
{
	OFFSET 0.00000 0.00000 0.00000
	CHANNELS 6 Xposition Yposition Zposition Zrotation Yrotation Xrotation 
	JOINT LHipJoint
	{
		OFFSET 0 0 0
		CHANNELS 3 Zrotation Yrotation Xrotation
		JOINT LeftHip
		{
			OFFSET 1.37590 -1.78394 0.89329
			CHANNELS 3 Zrotation Yrotation Xrotation
			JOINT LeftKnee
			{
				OFFSET 2.47928 -6.81178 0.00000
				CHANNELS 3 Zrotation Yrotation Xrotation
				JOINT LeftAnkle
				{
					OFFSET 2.63345 -7.23535 0.00000
					CHANNELS 3 Zrotation Yrotation Xrotation
					JOINT LeftToe
					{
						OFFSET 0.23938 -0.65768 2.27012
						CHANNELS 3 Zrotation Yrotation Xrotation
						End Site
						{
							OFFSET 0.00000 -0.00000 1.18363
						}
					}
				}
			}
		}
	}
	JOINT RHipJoint
	{
		OFFSET 0 0 0
		CHANNELS 3 Zrotation Yrotation Xrotation
		JOINT RightHip
		{
			OFFSET -1.33617 -1.78394 0.89329
			CHANNELS 3 Zrotation Yrotation Xrotation
			JOINT RightKnee
			{
				OFFSET -2.56922 -7.05888 0.00000
				CHANNELS 3 Zrotation Yrotation Xrotation
				JOINT RightAnkle
				{
					OFFSET -2.56568 -7.04915 0.00000
					CHANNELS 3 Zrotation Yrotation Xrotation
					JOINT RightToe
					{
						OFFSET -0.27533 -0.75646 2.18105
						CHANNELS 3 Zrotation Yrotation Xrotation
						End Site
						{
							OFFSET -0.00000 -0.00000 1.15233
						}
					}
				}
			}
		}
	}
	JOINT lowerback
	{
		OFFSET 0 0 0
		CHANNELS 3 Zrotation Yrotation Xrotation
		JOINT Chest
		{
			OFFSET 0.06190 2.15152 -0.00935
			CHANNELS 3 Zrotation Yrotation Xrotation
			JOINT Chest2
			{
				OFFSET 0.06334 2.15332 0.00872
				CHANNELS 3 Zrotation Yrotation Xrotation
				JOINT lowerneck
				{
					OFFSET 0 0 0
					CHANNELS 3 Zrotation Yrotation Xrotation
					JOINT Neck
					{
						OFFSET -0.04202 1.66908 0.23524
						CHANNELS 3 Zrotation Yrotation Xrotation
						JOINT Head
						{
							OFFSET 0.07510 1.69357 -0.24440
							CHANNELS 3 Zrotation Yrotation Xrotation
							End Site
							{
								OFFSET 0.02556 1.71719 -0.11000
							}
						}
					}
				}
				JOINT LeftCollar
				{
					OFFSET 0 0 0
					CHANNELS 3 Zrotation Yrotation Xrotation
					JOINT LeftShoulder
					{
						OFFSET 3.67168 1.26306 -0.41342
CHANNELS 3 Zrotation Xrotation Yrotation
						JOINT LeftElbow
						{
OFFSET 0 -4.685100 -0.000000
CHANNELS 3 Zrotation Xrotation Yrotation
							JOINT LeftWrist
							{
OFFSET 0 -3.396260 -0.000000
CHANNELS 3 Zrotation Xrotation Yrotation
								JOINT lhand
								{
									OFFSET 0 0 0
CHANNELS 3 Zrotation Xrotation Yrotation
									JOINT LFingers
									{
OFFSET 0 -0.486080 -0.000000
CHANNELS 3 Zrotation Xrotation Yrotation
										End Site
										{
OFFSET 0 -0.391890 -0.000000
										}
									}
								}
								JOINT LThumb
								{
OFFSET 0 0.000000 0.000000
CHANNELS 3 Zrotation Xrotation Yrotation
									End Site
									{
OFFSET 0 -0.397870 0.397870
									}
								}
							}
						}
					}
				}
				JOINT RightCollar
				{
					OFFSET 0 0 0
					CHANNELS 3 Zrotation Yrotation Xrotation
					JOINT RightShoulder
					{
						OFFSET -3.04136 1.42992 -0.76390
CHANNELS 3 Zrotation Xrotation Yrotation
						JOINT RightElbow
						{
OFFSET 0 -5.555760 -0.000000
CHANNELS 3 Zrotation Xrotation Yrotation
							JOINT RightWrist
							{
OFFSET 0 -3.327740 -0.000000
CHANNELS 3 Zrotation Xrotation Yrotation
								JOINT rhand
								{
									OFFSET 0 0 0
CHANNELS 3 Zrotation Xrotation Yrotation
									JOINT RFingers
									{
OFFSET 0 -0.507630 -0.000000
CHANNELS 3 Zrotation Xrotation Yrotation
										End Site
										{
OFFSET 0 -0.409260 -0.000000
										}
									}
								}
								JOINT RThumb
								{
OFFSET 0 0.000000 0.000000
CHANNELS 3 Zrotation Xrotation Yrotation
									End Site
									{
OFFSET 0 -0.415510 0.415510
									}
								}
							}
						}
					}
				}
			}
		}
	}
}
MOTION
Frames: 7
Frame Time: 0.008333333333333333
-17.567227 17.795423 3.557812 -613.674578 -91.097319 619.687735 0.000000 0.000000 0.000000 -18.000106 -5.078147 1.102812 2.998342 10.691119 31.246376 0.065221 -3.796350 -4.904037 1.267404 -7.135645 -20.117972 0.000000 0.000000 0.000000 15.077553 10.058788 -26.858831 -0.904779 -6.061728 16.963656 0.662128 -14.261194 -6.221929 -0.442948 -4.270059 11.837765 1.704806 -1.550439 -1.571695 3.127049 -2.134658 -1.152079 2.222024 -1.088251 -0.242478 -0.164302 3.697525 -18.442876 -0.328673 5.019934 28.696035 0.668785 1.974556 12.600754 0.000000 0.000000 0.000000 -4.120999 0.790673 12.064206 10.584513 -17.648044 1.648216 9.474835 24.047127 -32.795586 0.000000 0.000000 0.000000 -7.125000 0.000000 0.000000 -26.813715 61.104403 10.965388 0.000000 0.000000 0.000000 -3.785951 12.996064 -7.310353 -13.123344 -21.467364 -2.498506 -12.728001 15.884920 31.194671 0.000000 0.000000 0.000000 7.125000 0.000000 0.000000 22.006619 60.445752 -8.530481
-17.848189 17.810959 3.508614 -632.508977 -91.591088 638.503219 0.000000 0.000000 0.000000 -17.175604 -5.042770 -0.030437 3.476759 11.426703 33.736214 0.022337 -3.360079 -3.307914 1.236525 -7.051369 -19.867698 0.000000 0.000000 0.000000 16.138358 10.131584 -26.050591 -0.922366 -6.118689 17.129225 0.611345 -13.713272 -5.892222 -0.503885 -4.549947 12.629470 2.218574 -1.331178 -1.528134 3.242540 -1.853538 -1.102628 2.057552 -0.952174 -0.235834 -0.336272 3.519671 -18.493524 -0.195136 4.777941 28.709878 0.710920 1.866413 12.607289 0.000000 0.000000 0.000000 -4.557652 2.853737 17.855091 9.667182 -16.216440 1.381319 9.658377 27.906933 -34.103186 0.000000 0.000000 0.000000 -7.125000 0.000000 0.000000 -27.908577 62.291336 12.241068 0.000000 0.000000 0.000000 -3.871774 12.748514 -5.639265 -13.860145 -22.533650 -2.774806 -12.623269 14.568522 30.946278 0.000000 0.000000 0.000000 7.125000 0.000000 0.000000 21.914217 60.192848 -8.359734
-18.127483 17.829409 3.459289 -641.849492 -92.188500 647.821134 0.000000 0.000000 0.000000 -16.308968 -5.022285 -1.320716 4.003838 12.162736 36.314022 -0.005008 -2.906705 -1.691940 1.179667 -6.893030 -19.398875 0.000000 0.000000 0.000000 17.233126 10.192204 -25.173823 -0.938458 -6.170510 17.279980 0.561940 -13.159576 -5.606718 -0.570840 -4.837869 13.446841 2.735535 -1.101370 -1.480789 3.354565 -1.558379 -1.055604 1.887795 -0.809154 -0.230564 -0.525064 3.324279 -18.544575 -0.047039 4.511924 28.717615 0.757582 1.748063 12.611564 0.000000 0.000000 0.000000 -4.919722 4.861793 24.158260 8.901254 -15.002463 1.174903 9.878374 32.065672 -35.393644 0.000000 0.000000 0.000000 -7.125000 0.000000 0.000000 -29.058709 63.459414 13.588137 0.000000 0.000000 0.000000 -3.983280 12.500462 -3.975873 -14.642491 -23.644835 -3.081665 -12.555119 13.360379 30.696233 0.000000 0.000000 0.000000 7.125000 0.000000 0.000000 21.785068 59.946841 -8.178916
-18.404616 17.850502 3.410085 -646.806803 -92.826922 652.752100 0.000000 0.000000 0.000000 -15.409022 -5.020102 -2.753837 4.573877 12.886158 38.945484 -0.016060 -2.454948 -0.115956 1.105162 -6.679396 -18.768900 0.000000 0.000000 0.000000 18.347057 10.245515 -24.223164 -0.950091 -6.207632 17.387906 0.515026 -12.611038 -5.367682 -0.640287 -5.119206 14.248915 3.251129 -0.862827 -1.430625 3.461220 -1.251490 -1.010226 1.713493 -0.660255 -0.224879 -0.730971 3.111968 -18.592404 0.116427 4.222671 28.717559 0.809165 1.620027 12.612330 0.000000 0.000000 0.000000 -5.201781 6.825235 30.720768 8.299574 -14.037236 1.023649 10.144228 36.373189 -36.647476 0.000000 0.000000 0.000000 -7.125000 0.000000 0.000000 -30.238184 64.594565 14.985096 0.000000 0.000000 0.000000 -4.121205 12.249065 -2.350449 -15.464101 -24.788341 -3.418424 -12.539643 12.281107 30.448777 0.000000 0.000000 0.000000 7.125000 0.000000 0.000000 21.606070 59.715380 -7.987581
-18.678894 17.873750 3.361278 -649.547796 -93.473658 655.463464 0.000000 0.000000 0.000000 -14.488297 -5.044134 -4.323644 5.180304 13.582670 41.593283 -0.011738 -2.027759 1.350991 1.018956 -6.421741 -18.013145 0.000000 0.000000 0.000000 19.460774 10.289796 -23.199837 -0.954696 -6.222157 17.430333 0.471160 -12.076128 -5.195774 -0.711903 -5.391876 15.029761 3.756083 -0.618680 -1.378439 3.559785 -0.936514 -0.967851 1.537044 -0.507257 -0.219049 -0.954511 2.882154 -18.632885 0.295528 3.909343 28.707108 0.865759 1.481995 12.608102 0.000000 0.000000 0.000000 -5.399839 8.747607 37.203999 7.867781 -13.338259 0.921466 10.451621 40.585321 -37.832974 0.000000 0.000000 0.000000 -7.125000 0.000000 0.000000 -31.419158 65.669584 16.398375 0.000000 0.000000 0.000000 -4.286548 11.989480 -0.793803 -16.319511 -25.951268 -3.785045 -12.583682 11.350382 30.219414 0.000000 0.000000 0.000000 7.125000 0.000000 0.000000 21.382132 59.513705 -7.796142
-18.949951 17.898555 3.313203 -651.099776 -94.107431 656.985229 0.000000 0.000000 0.000000 -13.560826 -5.101059 -6.007637 5.810257 14.239533 44.210992 0.003629 -1.644527 2.651884 0.927819 -6.135687 -17.178868 0.000000 0.000000 0.000000 20.557139 10.317236 -22.113650 -0.951097 -6.210624 17.396791 0.430616 -11.561994 -5.102821 -0.783608 -5.650981 15.775139 4.242716 -0.372636 -1.325193 3.648303 -0.618418 -0.927240 1.360316 -0.352565 -0.211070 -1.194450 2.635775 -18.668465 0.489153 3.573352 28.686745 0.926871 1.334437 12.600043 0.000000 0.000000 0.000000 -5.520436 10.626703 43.227881 7.584633 -12.877259 0.857224 10.819738 44.430628 -38.916318 0.000000 0.000000 0.000000 -7.125000 0.000000 0.000000 -32.522007 66.664656 17.759551 0.000000 0.000000 0.000000 -4.477156 11.716168 0.673546 -17.201661 -27.121659 -4.179474 -12.686022 10.568047 30.023696 0.000000 0.000000 0.000000 7.125000 0.000000 0.000000 21.125673 59.355884 -7.617074
-19.217423 17.924333 3.266019 -651.927745 -94.716689 657.781825 0.000000 0.000000 0.000000 -12.635985 -5.194268 -7.783010 6.448938 14.847832 46.754635 0.024808 -1.314387 3.753796 0.838386 -5.840082 -16.321332 0.000000 0.000000 0.000000 21.625456 10.322161 -20.979325 -0.939574 -6.173931 17.290015 0.393324 -11.073869 -5.094522 -0.853828 -5.892689 16.473527 4.707715 -0.128021 -1.271539 3.725654 -0.301340 -0.888995 1.184447 -0.198060 -0.201527 -1.447998 2.375784 -18.695636 0.694456 3.218832 28.656057 0.991695 1.179174 12.587502 0.000000 0.000000 0.000000 -5.573530 12.456255 48.534969 7.420496 -12.609230 0.820957 11.221676 47.698847 -39.897163 0.000000 0.000000 0.000000 -7.125000 0.000000 0.000000 -33.551130 67.576179 19.055682 0.000000 0.000000 0.000000 -4.690190 11.428530 2.045323 -18.103606 -28.288471 -4.598793 -12.855063 9.918958 29.866859 0.000000 0.000000 0.000000 7.125000 0.000000 0.000000 20.831337 59.248847 -7.451227
